<?xml version="1.0" encoding="utf-8"?>
<!-- Generator: Adobe Illustrator 26.4.0, SVG Export Plug-In . SVG Version: 6.00 Build 0)  -->
<svg version="1.1" id="Calque_1" xmlns="http://www.w3.org/2000/svg" xmlns:xlink="http://www.w3.org/1999/xlink" x="0px" y="0px"
	 viewBox="0 0 250 250" style="enable-background:new 0 0 250 250;" xml:space="preserve">
<style type="text/css">
	.st0{fill:#221F1F;}
</style>
<g>
	<path class="st0" d="M125.6,91.2c-34,0-45.8,19.3-45.8,19.3v7.2c0,2.2,1.8,4,4,4h15.7c2.2,0,4-1.8,4-4v-7.2c0,0,7.1-7.3,22.1-7.3
		s20.5,7.3,20.5,7.3v7.2c0,2.2,1.8,4,4,4h15.7c2.2,0,4-1.8,4-4v-7.2C169.9,110.5,159.6,91.2,125.6,91.2z"/>
	<path class="st0" d="M153.4,125.3L153.4,125.3l-3.1,0c-5.1,0-9.3-4.2-9.3-9.3v-4c0-0.4-0.1-0.8-0.4-1c-0.1-0.1-0.3-0.3-0.5-0.3
		c-1.3-0.7-7.2-3.4-15.3-3.4c-8.1,0-14,2.8-15.3,3.4c-0.2,0.1-0.3,0.2-0.5,0.3c-0.3,0.3-0.4,0.7-0.4,1v4c0,5.1-4.2,9.3-9.3,9.3h-3.1
		l0,0l-11.4,18.3c-0.2,0.2-0.2,0.5-0.2,0.8v13.1c0,0.9,0.7,1.6,1.6,1.6h38.6h38.6c0.9,0,1.6-0.7,1.6-1.6v-13.1
		c0-0.3-0.1-0.6-0.2-0.8L153.4,125.3z M124.8,150.5c-7.7,0-14-6.3-14-14c0-7.7,6.3-14,14-14c7.7,0,14,6.3,14,14
		C138.9,144.2,132.6,150.5,124.8,150.5z"/>
	<circle class="st0" cx="124.8" cy="136.7" r="10.1"/>
</g>
</svg>
